# xmcd
#
# Track frame offsets:
#  182
#  19852
#  40420
#  84975
#  106777
#  135412
#  168355
#  198367
#  221175
#  241312
#  270950
#
# Disc length: 3945 seconds
#
# Revision: 2
# Processed by: cddbd v1.5.1PL2 Copyright (c) Steve Scherf et al.
# Submitted via: Collectorz.com_Music_Collector 6.11
#
DISCID=8b0f670b
DTITLE=Junior Kimbrough - Sad Days, Lonely Nights
DYEAR=1997
DGENRE=Blues
TTITLE0=Sad Days, Lonely Nights
TTITLE1=Lonesome In My Home
TTITLE2=Lord, Have Mercy On Me
TTITLE3=John Lee Hooker - Crawling King Snake
TTITLE4=My Mind Is Rambling
TTITLE5=Leaving In The Morning
TTITLE6=Traditional - Old Black Mattie
TTITLE7=I'm In Love
TTITLE8=Pull Your Clothes Off
TTITLE9=I'm Gonna Have To Leave Here
TTITLE10=Sad Days, Lonely Nights
EXTD=
EXTT0=
EXTT1=
EXTT2=
EXTT3=
EXTT4=
EXTT5=
EXTT6=
EXTT7=
EXTT8=
EXTT9=
EXTT10=
PLAYORDER=
